<mxfile host="app.diagrams.net" modified="2024-07-18T06:02:00.246Z" agent="Mozilla/5.0 (Windows NT 10.0; Win64; x64) AppleWebKit/537.36 (KHTML, like Gecko) Chrome/126.0.0.0 Safari/537.36 Edg/126.0.0.0" version="24.5.2" etag="ahtHN-AMLewV97Bgzk1n" type="github">
  <diagram name="Page-1" id="zkky88IRKrvXom1y8RP8">
    <mxGraphModel>
      <root>
        <mxCell id="0" />
        <mxCell id="1" parent="0" />
      </root>
    </mxGraphModel>
  </diagram>
</mxfile>
